<?xml version="1.0" encoding="UTF-8" standalone="no"?>
<!DOCTYPE svg PUBLIC "-//W3C//DTD SVG 1.1//EN" "http://www.w3.org/Graphics/SVG/1.1/DTD/svg11.dtd">
<svg width="100%" height="100%" viewBox="0 0 1024 1024" version="1.1" xmlns="http://www.w3.org/2000/svg" xmlns:xlink="http://www.w3.org/1999/xlink" xml:space="preserve" xmlns:serif="http://www.serif.com/" style="fill-rule:evenodd;clip-rule:evenodd;stroke-linejoin:round;stroke-miterlimit:2;">
    <g transform="matrix(0.24,0,0,0.24,0,0)">
        <g transform="matrix(0.876591,0,0,1.26059,239.677,-843.298)">
            <g id="Ablage">
                <path d="M2612,2981.39C2628.83,2972.07 2649.7,2967 2671.2,2967C2848.36,2967 3674,2967 3674,2967L3674,3505.82C3674,3547.34 3625.6,3581 3565.89,3581L741.065,3581C715.852,3581 691.672,3574.03 673.844,3561.64C656.016,3549.24 646,3532.43 646,3514.89L646,2967L1648.84,2967C1670.32,2967 1691.16,2972.07 1707.97,2981.37C1753.91,3006.8 1849.05,3059.45 1895.02,3084.89C1911.85,3094.21 1932.71,3099.28 1954.22,3099.28L2365.78,3099.28C2387.29,3099.28 2408.16,3094.21 2424.98,3084.89C2470.94,3059.46 2566.04,3006.82 2612,2981.39ZM2527.9,3348.57C2527.9,3321.21 2495.95,3298.99 2456.6,3298.99L1863.4,3298.99C1824.05,3298.99 1792.1,3321.21 1792.1,3348.57C1792.1,3375.93 1824.05,3398.15 1863.4,3398.15L2456.6,3398.15C2495.95,3398.15 2527.9,3375.93 2527.9,3348.57Z" style="fill:rgb(119,119,119);"/>
            </g>
        </g>
    </g>
</svg>
