<?xml version="1.0" encoding="UTF-8" standalone="no"?>
<!DOCTYPE svg PUBLIC "-//W3C//DTD SVG 1.1//EN" "http://www.w3.org/Graphics/SVG/1.1/DTD/svg11.dtd">
<svg width="100%" height="100%" viewBox="0 0 1024 1024" version="1.1" xmlns="http://www.w3.org/2000/svg" xmlns:xlink="http://www.w3.org/1999/xlink" xml:space="preserve" xmlns:serif="http://www.serif.com/" style="fill-rule:evenodd;clip-rule:evenodd;stroke-linejoin:round;stroke-miterlimit:2;">
    <g transform="matrix(0.24,0,0,0.24,0,0)">
        <g id="Datum" transform="matrix(1,0,0,1,46.7946,725.41)">
            <g transform="matrix(150,0,0,150,1385,1053.37)">
                <path d="M0.129,-0L0.52,-0C0.565,-0 0.592,-0.028 0.592,-0.069C0.592,-0.111 0.565,-0.138 0.52,-0.138L0.276,-0.138L0.276,-0.141L0.417,-0.269C0.528,-0.37 0.574,-0.422 0.574,-0.512C0.574,-0.637 0.469,-0.722 0.308,-0.722C0.18,-0.722 0.086,-0.66 0.055,-0.579C0.05,-0.566 0.048,-0.554 0.048,-0.54C0.048,-0.496 0.076,-0.469 0.122,-0.469C0.158,-0.469 0.179,-0.483 0.202,-0.518C0.228,-0.565 0.259,-0.587 0.306,-0.587C0.362,-0.587 0.401,-0.551 0.401,-0.5C0.401,-0.455 0.378,-0.422 0.296,-0.347L0.095,-0.165C0.06,-0.134 0.045,-0.11 0.045,-0.077C0.045,-0.032 0.072,-0 0.129,-0Z" style="fill:rgb(53,62,73);fill-rule:nonzero;"/>
            </g>
            <g transform="matrix(150,0,0,150,1477.8,1053.37)">
                <path d="M0.341,0.018C0.527,0.018 0.643,-0.124 0.643,-0.354C0.643,-0.585 0.526,-0.723 0.341,-0.723C0.156,-0.723 0.039,-0.585 0.039,-0.354C0.039,-0.123 0.154,0.018 0.341,0.018ZM0.341,-0.122C0.267,-0.122 0.221,-0.2 0.221,-0.354C0.221,-0.507 0.267,-0.583 0.341,-0.583C0.415,-0.583 0.46,-0.508 0.46,-0.354C0.46,-0.2 0.416,-0.122 0.341,-0.122Z" style="fill:rgb(53,62,73);fill-rule:nonzero;"/>
            </g>
            <g transform="matrix(150,0,0,150,1580.04,1053.37)">
                <path d="M0.107,-0.18L0.084,-0.064C0.083,-0.058 0.083,-0.048 0.083,-0.042C0.083,-0.01 0.104,0.011 0.14,0.011C0.179,0.011 0.202,-0.008 0.21,-0.049L0.236,-0.18L0.346,-0.18L0.323,-0.064C0.321,-0.058 0.321,-0.048 0.321,-0.042C0.321,-0.01 0.342,0.011 0.378,0.011C0.417,0.011 0.44,-0.008 0.448,-0.05L0.475,-0.18L0.536,-0.18C0.582,-0.18 0.61,-0.207 0.61,-0.249C0.61,-0.282 0.587,-0.303 0.55,-0.303L0.499,-0.303L0.52,-0.411L0.581,-0.411C0.627,-0.411 0.654,-0.438 0.654,-0.479C0.654,-0.513 0.632,-0.534 0.594,-0.534L0.544,-0.534L0.565,-0.641C0.567,-0.647 0.567,-0.656 0.567,-0.663C0.567,-0.695 0.546,-0.716 0.51,-0.716C0.471,-0.716 0.448,-0.696 0.44,-0.655L0.416,-0.534L0.306,-0.534L0.327,-0.641C0.329,-0.647 0.33,-0.656 0.33,-0.663C0.33,-0.695 0.308,-0.716 0.272,-0.716C0.233,-0.716 0.209,-0.696 0.202,-0.655L0.177,-0.534L0.117,-0.534C0.071,-0.534 0.043,-0.507 0.043,-0.465C0.043,-0.432 0.066,-0.41 0.103,-0.41L0.153,-0.41L0.132,-0.302L0.072,-0.302C0.026,-0.302 -0.001,-0.275 -0.001,-0.234C-0.001,-0.201 0.021,-0.18 0.059,-0.18L0.107,-0.18ZM0.247,-0.29L0.274,-0.424L0.404,-0.424L0.377,-0.29L0.247,-0.29Z" style="fill:rgb(53,62,73);fill-rule:nonzero;"/>
            </g>
            <g transform="matrix(150,0,0,150,1678.48,1053.37)">
                <path d="M0.107,-0.18L0.084,-0.064C0.083,-0.058 0.083,-0.048 0.083,-0.042C0.083,-0.01 0.104,0.011 0.14,0.011C0.179,0.011 0.202,-0.008 0.21,-0.049L0.236,-0.18L0.346,-0.18L0.323,-0.064C0.321,-0.058 0.321,-0.048 0.321,-0.042C0.321,-0.01 0.342,0.011 0.378,0.011C0.417,0.011 0.44,-0.008 0.448,-0.05L0.475,-0.18L0.536,-0.18C0.582,-0.18 0.61,-0.207 0.61,-0.249C0.61,-0.282 0.587,-0.303 0.55,-0.303L0.499,-0.303L0.52,-0.411L0.581,-0.411C0.627,-0.411 0.654,-0.438 0.654,-0.479C0.654,-0.513 0.632,-0.534 0.594,-0.534L0.544,-0.534L0.565,-0.641C0.567,-0.647 0.567,-0.656 0.567,-0.663C0.567,-0.695 0.546,-0.716 0.51,-0.716C0.471,-0.716 0.448,-0.696 0.44,-0.655L0.416,-0.534L0.306,-0.534L0.327,-0.641C0.329,-0.647 0.33,-0.656 0.33,-0.663C0.33,-0.695 0.308,-0.716 0.272,-0.716C0.233,-0.716 0.209,-0.696 0.202,-0.655L0.177,-0.534L0.117,-0.534C0.071,-0.534 0.043,-0.507 0.043,-0.465C0.043,-0.432 0.066,-0.41 0.103,-0.41L0.153,-0.41L0.132,-0.302L0.072,-0.302C0.026,-0.302 -0.001,-0.275 -0.001,-0.234C-0.001,-0.201 0.021,-0.18 0.059,-0.18L0.107,-0.18ZM0.247,-0.29L0.274,-0.424L0.404,-0.424L0.377,-0.29L0.247,-0.29Z" style="fill:rgb(53,62,73);fill-rule:nonzero;"/>
            </g>
            <g transform="matrix(150,0,0,150,1776.92,1053.37)">
                <path d="M0.135,-0.212L0.313,-0.212C0.36,-0.212 0.394,-0.239 0.394,-0.287C0.394,-0.334 0.36,-0.361 0.313,-0.361L0.135,-0.361C0.088,-0.361 0.054,-0.334 0.054,-0.287C0.054,-0.239 0.088,-0.212 0.135,-0.212Z" style="fill:rgb(53,62,73);fill-rule:nonzero;"/>
            </g>
            <g transform="matrix(150,0,0,150,1844.16,1053.37)">
                <path d="M0.107,-0.18L0.084,-0.064C0.083,-0.058 0.083,-0.048 0.083,-0.042C0.083,-0.01 0.104,0.011 0.14,0.011C0.179,0.011 0.202,-0.008 0.21,-0.049L0.236,-0.18L0.346,-0.18L0.323,-0.064C0.321,-0.058 0.321,-0.048 0.321,-0.042C0.321,-0.01 0.342,0.011 0.378,0.011C0.417,0.011 0.44,-0.008 0.448,-0.05L0.475,-0.18L0.536,-0.18C0.582,-0.18 0.61,-0.207 0.61,-0.249C0.61,-0.282 0.587,-0.303 0.55,-0.303L0.499,-0.303L0.52,-0.411L0.581,-0.411C0.627,-0.411 0.654,-0.438 0.654,-0.479C0.654,-0.513 0.632,-0.534 0.594,-0.534L0.544,-0.534L0.565,-0.641C0.567,-0.647 0.567,-0.656 0.567,-0.663C0.567,-0.695 0.546,-0.716 0.51,-0.716C0.471,-0.716 0.448,-0.696 0.44,-0.655L0.416,-0.534L0.306,-0.534L0.327,-0.641C0.329,-0.647 0.33,-0.656 0.33,-0.663C0.33,-0.695 0.308,-0.716 0.272,-0.716C0.233,-0.716 0.209,-0.696 0.202,-0.655L0.177,-0.534L0.117,-0.534C0.071,-0.534 0.043,-0.507 0.043,-0.465C0.043,-0.432 0.066,-0.41 0.103,-0.41L0.153,-0.41L0.132,-0.302L0.072,-0.302C0.026,-0.302 -0.001,-0.275 -0.001,-0.234C-0.001,-0.201 0.021,-0.18 0.059,-0.18L0.107,-0.18ZM0.247,-0.29L0.274,-0.424L0.404,-0.424L0.377,-0.29L0.247,-0.29Z" style="fill:rgb(53,62,73);fill-rule:nonzero;"/>
            </g>
            <g transform="matrix(150,0,0,150,1942.59,1053.37)">
                <path d="M0.107,-0.18L0.084,-0.064C0.083,-0.058 0.083,-0.048 0.083,-0.042C0.083,-0.01 0.104,0.011 0.14,0.011C0.179,0.011 0.202,-0.008 0.21,-0.049L0.236,-0.18L0.346,-0.18L0.323,-0.064C0.321,-0.058 0.321,-0.048 0.321,-0.042C0.321,-0.01 0.342,0.011 0.378,0.011C0.417,0.011 0.44,-0.008 0.448,-0.05L0.475,-0.18L0.536,-0.18C0.582,-0.18 0.61,-0.207 0.61,-0.249C0.61,-0.282 0.587,-0.303 0.55,-0.303L0.499,-0.303L0.52,-0.411L0.581,-0.411C0.627,-0.411 0.654,-0.438 0.654,-0.479C0.654,-0.513 0.632,-0.534 0.594,-0.534L0.544,-0.534L0.565,-0.641C0.567,-0.647 0.567,-0.656 0.567,-0.663C0.567,-0.695 0.546,-0.716 0.51,-0.716C0.471,-0.716 0.448,-0.696 0.44,-0.655L0.416,-0.534L0.306,-0.534L0.327,-0.641C0.329,-0.647 0.33,-0.656 0.33,-0.663C0.33,-0.695 0.308,-0.716 0.272,-0.716C0.233,-0.716 0.209,-0.696 0.202,-0.655L0.177,-0.534L0.117,-0.534C0.071,-0.534 0.043,-0.507 0.043,-0.465C0.043,-0.432 0.066,-0.41 0.103,-0.41L0.153,-0.41L0.132,-0.302L0.072,-0.302C0.026,-0.302 -0.001,-0.275 -0.001,-0.234C-0.001,-0.201 0.021,-0.18 0.059,-0.18L0.107,-0.18ZM0.247,-0.29L0.274,-0.424L0.404,-0.424L0.377,-0.29L0.247,-0.29Z" style="fill:rgb(53,62,73);fill-rule:nonzero;"/>
            </g>
            <g transform="matrix(150,0,0,150,2041.03,1053.37)">
                <path d="M0.135,-0.212L0.313,-0.212C0.36,-0.212 0.394,-0.239 0.394,-0.287C0.394,-0.334 0.36,-0.361 0.313,-0.361L0.135,-0.361C0.088,-0.361 0.054,-0.334 0.054,-0.287C0.054,-0.239 0.088,-0.212 0.135,-0.212Z" style="fill:rgb(53,62,73);fill-rule:nonzero;"/>
            </g>
            <g transform="matrix(150,0,0,150,2108.27,1053.37)">
                <path d="M0.107,-0.18L0.084,-0.064C0.083,-0.058 0.083,-0.048 0.083,-0.042C0.083,-0.01 0.104,0.011 0.14,0.011C0.179,0.011 0.202,-0.008 0.21,-0.049L0.236,-0.18L0.346,-0.18L0.323,-0.064C0.321,-0.058 0.321,-0.048 0.321,-0.042C0.321,-0.01 0.342,0.011 0.378,0.011C0.417,0.011 0.44,-0.008 0.448,-0.05L0.475,-0.18L0.536,-0.18C0.582,-0.18 0.61,-0.207 0.61,-0.249C0.61,-0.282 0.587,-0.303 0.55,-0.303L0.499,-0.303L0.52,-0.411L0.581,-0.411C0.627,-0.411 0.654,-0.438 0.654,-0.479C0.654,-0.513 0.632,-0.534 0.594,-0.534L0.544,-0.534L0.565,-0.641C0.567,-0.647 0.567,-0.656 0.567,-0.663C0.567,-0.695 0.546,-0.716 0.51,-0.716C0.471,-0.716 0.448,-0.696 0.44,-0.655L0.416,-0.534L0.306,-0.534L0.327,-0.641C0.329,-0.647 0.33,-0.656 0.33,-0.663C0.33,-0.695 0.308,-0.716 0.272,-0.716C0.233,-0.716 0.209,-0.696 0.202,-0.655L0.177,-0.534L0.117,-0.534C0.071,-0.534 0.043,-0.507 0.043,-0.465C0.043,-0.432 0.066,-0.41 0.103,-0.41L0.153,-0.41L0.132,-0.302L0.072,-0.302C0.026,-0.302 -0.001,-0.275 -0.001,-0.234C-0.001,-0.201 0.021,-0.18 0.059,-0.18L0.107,-0.18ZM0.247,-0.29L0.274,-0.424L0.404,-0.424L0.377,-0.29L0.247,-0.29Z" style="fill:rgb(53,62,73);fill-rule:nonzero;"/>
            </g>
            <g transform="matrix(150,0,0,150,2206.7,1053.37)">
                <path d="M0.107,-0.18L0.084,-0.064C0.083,-0.058 0.083,-0.048 0.083,-0.042C0.083,-0.01 0.104,0.011 0.14,0.011C0.179,0.011 0.202,-0.008 0.21,-0.049L0.236,-0.18L0.346,-0.18L0.323,-0.064C0.321,-0.058 0.321,-0.048 0.321,-0.042C0.321,-0.01 0.342,0.011 0.378,0.011C0.417,0.011 0.44,-0.008 0.448,-0.05L0.475,-0.18L0.536,-0.18C0.582,-0.18 0.61,-0.207 0.61,-0.249C0.61,-0.282 0.587,-0.303 0.55,-0.303L0.499,-0.303L0.52,-0.411L0.581,-0.411C0.627,-0.411 0.654,-0.438 0.654,-0.479C0.654,-0.513 0.632,-0.534 0.594,-0.534L0.544,-0.534L0.565,-0.641C0.567,-0.647 0.567,-0.656 0.567,-0.663C0.567,-0.695 0.546,-0.716 0.51,-0.716C0.471,-0.716 0.448,-0.696 0.44,-0.655L0.416,-0.534L0.306,-0.534L0.327,-0.641C0.329,-0.647 0.33,-0.656 0.33,-0.663C0.33,-0.695 0.308,-0.716 0.272,-0.716C0.233,-0.716 0.209,-0.696 0.202,-0.655L0.177,-0.534L0.117,-0.534C0.071,-0.534 0.043,-0.507 0.043,-0.465C0.043,-0.432 0.066,-0.41 0.103,-0.41L0.153,-0.41L0.132,-0.302L0.072,-0.302C0.026,-0.302 -0.001,-0.275 -0.001,-0.234C-0.001,-0.201 0.021,-0.18 0.059,-0.18L0.107,-0.18ZM0.247,-0.29L0.274,-0.424L0.404,-0.424L0.377,-0.29L0.247,-0.29Z" style="fill:rgb(53,62,73);fill-rule:nonzero;"/>
            </g>
        </g>
    </g>
</svg>
