<?xml version="1.0" encoding="UTF-8" standalone="no"?>
<!DOCTYPE svg PUBLIC "-//W3C//DTD SVG 1.1//EN" "http://www.w3.org/Graphics/SVG/1.1/DTD/svg11.dtd">
<svg width="100%" height="100%" viewBox="0 0 1024 1024" version="1.1" xmlns="http://www.w3.org/2000/svg" xmlns:xlink="http://www.w3.org/1999/xlink" xml:space="preserve" xmlns:serif="http://www.serif.com/" style="fill-rule:evenodd;clip-rule:evenodd;stroke-linejoin:round;stroke-miterlimit:2;">
    <g transform="matrix(0.24,0,0,0.24,0,0)">
        <g id="PDF" transform="matrix(1,0,0,1,47.0144,57)">
            <g transform="matrix(375,0,0,375,1385,1214.43)">
                <path d="M0.143,0.011C0.2,0.011 0.232,-0.023 0.232,-0.083L0.232,-0.207L0.348,-0.207C0.504,-0.207 0.612,-0.305 0.612,-0.455C0.612,-0.606 0.51,-0.705 0.358,-0.705L0.143,-0.705C0.086,-0.705 0.053,-0.67 0.053,-0.611L0.053,-0.083C0.053,-0.023 0.086,0.011 0.143,0.011ZM0.232,-0.341L0.232,-0.567L0.311,-0.567C0.386,-0.567 0.431,-0.528 0.431,-0.455C0.431,-0.381 0.386,-0.341 0.31,-0.341L0.232,-0.341Z" style="fill:rgb(202,65,79);fill-rule:nonzero;"/>
            </g>
            <g transform="matrix(375,0,0,375,1624.5,1214.43)">
                <path d="M0.143,-0L0.339,-0C0.552,-0 0.677,-0.131 0.677,-0.356C0.677,-0.581 0.552,-0.705 0.339,-0.705L0.143,-0.705C0.086,-0.705 0.053,-0.67 0.053,-0.611L0.053,-0.094C0.053,-0.034 0.086,-0 0.143,-0ZM0.232,-0.145L0.232,-0.56L0.316,-0.56C0.429,-0.56 0.495,-0.488 0.495,-0.356C0.495,-0.215 0.433,-0.145 0.316,-0.145L0.232,-0.145Z" style="fill:rgb(202,65,79);fill-rule:nonzero;"/>
            </g>
            <g transform="matrix(375,0,0,375,1891.1,1214.43)">
                <path d="M0.143,0.011C0.2,0.011 0.232,-0.023 0.232,-0.083L0.232,-0.263L0.439,-0.263C0.486,-0.263 0.514,-0.288 0.514,-0.331C0.514,-0.375 0.485,-0.4 0.439,-0.4L0.232,-0.4L0.232,-0.56L0.462,-0.56C0.51,-0.56 0.542,-0.586 0.542,-0.632C0.542,-0.678 0.511,-0.705 0.462,-0.705L0.143,-0.705C0.086,-0.705 0.053,-0.67 0.053,-0.611L0.053,-0.083C0.053,-0.023 0.086,0.011 0.143,0.011Z" style="fill:rgb(202,65,79);fill-rule:nonzero;"/>
            </g>
        </g>
    </g>
</svg>
