<?xml version="1.0" encoding="utf-8"?>
<!-- Generator: Adobe Illustrator 22.0.1, SVG Export Plug-In . SVG Version: 6.00 Build 0)  -->
<svg version="1.1" id="Hide_x2F_Show_Grid_1_" xmlns="http://www.w3.org/2000/svg" xmlns:xlink="http://www.w3.org/1999/xlink"
	 x="0px" y="0px" viewBox="0 0 1024 1024" style="enable-background:new 0 0 1024 1024;" xml:space="preserve">
<style type="text/css">
	.st0{fill:#95979A;}
	.st1{fill-rule:evenodd;clip-rule:evenodd;fill:#CA414F;}
	.st2{opacity:0.25;fill:#222D3C;enable-background:new    ;}
	.st3{fill:#FFFFFF;}
	.st4{opacity:0.2;fill:#231F20;enable-background:new    ;}
	.st5{fill:#353E49;}
	.st6{opacity:0.5;fill:#222D3C;enable-background:new    ;}
</style>
<g id="Rounded_Rectangle_1">
	<g>
		<path class="st0" d="M794,1c30.9,0,60.9,6.1,89.1,18c27.3,11.5,51.8,28,72.8,49.1c21,21,37.5,45.5,49.1,72.8
			c11.9,28.2,18,58.2,18,89.1v564c0,30.9-6.1,60.9-18,89.1c-11.5,27.3-28,51.8-49.1,72.8c-21,21-45.5,37.5-72.8,49.1
			c-28.2,11.9-58.2,18-89.1,18H230c-30.9,0-60.9-6.1-89.1-18c-27.3-11.5-51.8-28-72.8-49.1c-21-21-37.5-45.5-49.1-72.8
			C7.1,854.9,1,824.9,1,794V230c0-30.9,6.1-60.9,18-89.1c11.5-27.3,28-51.8,49.1-72.8c21-21,45.5-37.5,72.8-49.1
			C169.1,7.1,199.1,1,230,1H794 M794,0H230C103,0,0,103,0,230v564c0,127,103,230,230,230h564c127,0,230-103,230-230V230
			C1024,103,921,0,794,0L794,0z"/>
	</g>
</g>
<g id="Rectangle_1">
	<g>
		<polygon class="st0" points="1025,322 1,322 1,323 1025,323 1025,322 		"/>
	</g>
</g>
<g id="Rectangle_1_5_">
	<g>
		<polygon class="st0" points="1025,512 1,512 1,513 1025,513 1025,512 		"/>
	</g>
</g>
<g id="Rectangle_1_6_">
	<g>
		<polygon class="st0" points="1025,701 1,701 1,702 1025,702 1025,701 		"/>
	</g>
</g>
<g id="Ellipse_1">
	<g>
		<path class="st0" d="M512,323c25.5,0,50.3,5,73.6,14.9c22.5,9.5,42.7,23.1,60.1,40.5c17.4,17.4,31,37.6,40.5,60.1
			C696,461.7,701,486.5,701,512c0,25.5-5,50.3-14.9,73.6c-9.5,22.5-23.1,42.7-40.5,60.1c-17.4,17.4-37.6,31-60.1,40.5
			C562.3,696,537.5,701,512,701c-25.5,0-50.3-5-73.6-14.9c-22.5-9.5-42.7-23.1-60.1-40.5c-17.4-17.4-31-37.6-40.5-60.1
			C328,562.3,323,537.5,323,512c0-25.5,5-50.3,14.9-73.6c9.5-22.5,23.1-42.7,40.5-60.1c17.4-17.4,37.6-31,60.1-40.5
			C461.7,328,486.5,323,512,323 M512,322c-104.9,0-190,85.1-190,190s85.1,190,190,190s190-85.1,190-190S616.9,322,512,322L512,322z"
			/>
	</g>
</g>
<g id="Ellipse_1_1_">
	<g>
		<path class="st0" d="M512,243c36.3,0,71.5,7.1,104.7,21.1c32,13.5,60.8,32.9,85.5,57.6c24.7,24.7,44.1,53.5,57.6,85.5
			c14,33.2,21.1,68.4,21.1,104.7s-7.1,71.5-21.1,104.7c-13.5,32-32.9,60.8-57.6,85.5c-24.7,24.7-53.5,44.1-85.5,57.6
			c-33.2,14-68.4,21.1-104.7,21.1s-71.5-7.1-104.7-21.1c-32-13.5-60.8-32.9-85.5-57.6c-24.7-24.7-44.1-53.5-57.6-85.5
			c-14-33.2-21.1-68.4-21.1-104.7s7.1-71.5,21.1-104.7c13.5-32,32.9-60.8,57.6-85.5c24.7-24.7,53.5-44.1,85.5-57.6
			C440.5,250.1,475.7,243,512,243 M512,242c-149.1,0-270,120.9-270,270s120.9,270,270,270s270-120.9,270-270S661.1,242,512,242
			L512,242z"/>
	</g>
</g>
<g id="Ellipse_1_2_">
	<g>
		<path class="st0" d="M512,68c59.9,0,118.1,11.7,172.8,34.9c52.9,22.4,100.4,54.4,141.1,95.2c40.8,40.8,72.8,88.3,95.2,141.1
			C944.3,393.9,956,452.1,956,512s-11.7,118.1-34.9,172.8C898.7,737.7,866.7,785.2,826,826c-40.8,40.8-88.3,72.8-141.1,95.2
			C630.1,944.3,571.9,956,512,956s-118.1-11.7-172.8-34.9C286.3,898.7,238.8,866.7,198,826c-40.8-40.8-72.8-88.3-95.2-141.1
			C79.7,630.1,68,571.9,68,512s11.7-118.1,34.9-172.8c22.4-52.9,54.4-100.4,95.2-141.1c40.8-40.8,88.3-72.8,141.1-95.2
			C393.9,79.7,452.1,68,512,68 M512,67C266.2,67,67,266.2,67,512s199.2,445,445,445s445-199.2,445-445S757.8,67,512,67L512,67z"/>
	</g>
</g>
<path class="st1" d="M799.6,1025.6H226.7C102.6,1025.6,1,924,1,799.9V227C1,102.8,102.6,1.3,226.7,1.3h572.9
	c124.1,0,225.7,101.6,225.7,225.7v572.9C1025.3,924,923.7,1025.6,799.6,1025.6z"/>
<g>
	<title>Layer 1</title>
	<path id="svg_6" class="st2" d="M577,352.5V208.9H305.8c-26.4,0-47.9,21.4-47.9,47.9v542.3c0,26.4,21.4,47.9,47.9,47.9h414.7
		c26.4,0,47.9-21.4,47.9-47.9V400.3H624.8C598.4,400.3,577,378.9,577,352.5z"/>
	<path id="svg_8" class="st3" d="M577,320.6V177H305.8c-26.4,0-47.9,21.4-47.9,47.9v542.3c0,26.4,21.4,47.9,47.9,47.9h414.7
		c26.4,0,47.9-21.4,47.9-47.9V368.4H624.8C598.4,368.4,577,347,577,320.6z"/>
	<polygon id="svg_10" class="st4" points="593.2,357.2 768.4,512 768.4,368.4 	"/>
	<path id="svg_12" class="st5" d="M577,177v143.6c0,26.4,21.4,47.9,47.9,47.9h143.6L577,177z"/>
	<rect id="svg_14" x="353.7" y="336.5" class="st6" width="153.5" height="31.9"/>
	<rect id="svg_16" x="353.7" y="496" class="st6" width="319" height="31.9"/>
	<rect id="svg_18" x="353.7" y="416.3" class="st6" width="319" height="31.9"/>
	<rect id="svg_20" x="353.7" y="575.8" class="st6" width="319" height="31.9"/>
	<rect id="svg_22" x="353.7" y="655.6" class="st6" width="319" height="31.9"/>
</g>
</svg>
